<?xml version="1.0" encoding="UTF-8" standalone="no"?>
<!-- Created with Inkscape (http://www.inkscape.org/) -->

<svg
   xmlns:dc="http://purl.org/dc/elements/1.1/"
   xmlns:cc="http://creativecommons.org/ns#"
   xmlns:rdf="http://www.w3.org/1999/02/22-rdf-syntax-ns#"
   xmlns:svg="http://www.w3.org/2000/svg"
   xmlns="http://www.w3.org/2000/svg"
   xmlns:sodipodi="http://sodipodi.sourceforge.net/DTD/sodipodi-0.dtd"
   xmlns:inkscape="http://www.inkscape.org/namespaces/inkscape"
   width="200mm"
   height="200mm"
   viewBox="0 0 708.66142 708.66141"
   id="svg2"
   version="1.1"
   inkscape:version="0.91 r13725"
   sodipodi:docname="logo.svg">
  <defs
     id="defs4" />
  <sodipodi:namedview
     id="base"
     pagecolor="#ffffff"
     bordercolor="#666666"
     borderopacity="1.0"
     inkscape:pageopacity="0.0"
     inkscape:pageshadow="2"
     inkscape:zoom="1"
     inkscape:cx="643.75822"
     inkscape:cy="411.63805"
     inkscape:document-units="px"
     inkscape:current-layer="layer1"
     showgrid="false"
     showguides="true"
     inkscape:guide-bbox="true"
     inkscape:window-width="1920"
     inkscape:window-height="1017"
     inkscape:window-x="2040"
     inkscape:window-y="-8"
     inkscape:window-maximized="1" />
  <metadata
     id="metadata7">
    <rdf:RDF>
      <cc:Work
         rdf:about="">
        <dc:format>image/svg+xml</dc:format>
        <dc:type
           rdf:resource="http://purl.org/dc/dcmitype/StillImage" />
        <dc:title></dc:title>
      </cc:Work>
    </rdf:RDF>
  </metadata>
  <g
     inkscape:label="Ebene 1"
     inkscape:groupmode="layer"
     id="layer1"
     transform="translate(0,-343.70079)">
    <path
       style="fill:#333333;fill-opacity:1;fill-rule:evenodd;stroke:none;stroke-width:1px;stroke-linecap:butt;stroke-linejoin:miter;stroke-opacity:1"
       id="path3336"
       sodipodi:type="arc"
       sodipodi:cx="354.54724"
       sodipodi:cy="668.57007"
       sodipodi:rx="350.35318"
       sodipodi:ry="350.35315"
       sodipodi:start="0"
       sodipodi:end="3.1415927"
       d="M 704.90042,668.57007 A 350.35318,350.35315 0 0 1 529.72383,971.9848 350.35318,350.35315 0 0 1 179.37064,971.98479 350.35318,350.35315 0 0 1 4.1940613,668.57005 l 350.3531787,2e-5 z" />
    <path
       style="fill:#ffe680;fill-opacity:1;stroke:#263238;stroke-width:3.151016;stroke-miterlimit:4;stroke-dasharray:none;stroke-opacity:1"
       id="path4144"
       sodipodi:type="arc"
       sodipodi:cx="354.47202"
       sodipodi:cy="666.95996"
       sodipodi:rx="109.90051"
       sodipodi:ry="108.3254"
       sodipodi:start="0"
       sodipodi:end="3.1415927"
       d="m 464.37253,666.95996 a 109.90051,108.3254 0 0 1 -54.95026,93.81255 109.90051,108.3254 0 0 1 -109.90051,0 109.90051,108.3254 0 0 1 -54.95026,-93.81255 l 109.90052,0 z" />
    <g
       id="g4488"
       transform="matrix(1.5925144,0,0,1.5925144,-236.70541,-141.85702)">
      <rect
         ry="3"
         rx="3"
         y="475.89774"
         x="151.02209"
         height="20"
         width="80"
         id="rect4201"
         style="fill:#333333;fill-opacity:1;stroke:none;stroke-opacity:1" />
      <rect
         ry="3"
         rx="3"
         y="475.89774"
         x="511.5177"
         height="20"
         width="80"
         id="rect4201-7-6"
         style="fill:#333333;fill-opacity:1;stroke:none;stroke-opacity:1" />
      <rect
         ry="3"
         rx="3"
         y="475.89774"
         x="331.02692"
         height="20"
         width="80"
         id="rect4201-1"
         style="fill:#333333;fill-opacity:1;stroke:none;stroke-opacity:1" />
      <rect
         ry="3"
         rx="3"
         y="475.89774"
         x="241.02451"
         height="20"
         width="80"
         id="rect4201-1-6"
         style="fill:#333333;fill-opacity:1;stroke:none;stroke-opacity:1" />
      <rect
         ry="3"
         rx="3"
         y="475.89774"
         x="421.02933"
         height="20"
         width="80"
         id="rect4201-1-6-7"
         style="fill:#333333;fill-opacity:1;stroke:none;stroke-opacity:1" />
    </g>
    <g
       id="g4818"
       transform="matrix(1.5925144,0,0,1.5925144,-237.94335,-152.1518)">
      <rect
         ry="3"
         rx="3"
         y="452.36221"
         x="151.79944"
         height="20"
         width="80"
         id="rect4201-8"
         style="fill:#ffe680;fill-opacity:1;stroke:none;stroke-opacity:1" />
      <rect
         ry="3"
         rx="3"
         y="452.36221"
         x="512.29504"
         height="20"
         width="80"
         id="rect4201-7-6-8"
         style="fill:#ffe680;fill-opacity:1;stroke:none;stroke-opacity:1" />
      <rect
         ry="3"
         rx="3"
         y="452.36221"
         x="331.80426"
         height="20"
         width="80"
         id="rect4201-1-4"
         style="fill:#333333;fill-opacity:1;stroke:none;stroke-opacity:1" />
      <rect
         ry="3"
         rx="3"
         y="452.36221"
         x="241.80185"
         height="20"
         width="80"
         id="rect4201-1-6-4"
         style="fill:#333333;fill-opacity:1;stroke:none;stroke-opacity:1" />
      <rect
         ry="3"
         rx="3"
         y="452.36221"
         x="421.80667"
         height="20"
         width="80"
         id="rect4201-1-6-7-4"
         style="fill:#333333;fill-opacity:1;stroke:none;stroke-opacity:1" />
    </g>
    <g
       id="g4825"
       transform="matrix(1.5925144,0,0,1.5925144,-237.94335,-152.15179)">
      <g
         transform="translate(2.8835508e-6,10.999992)"
         id="g4532">
        <rect
           style="fill:#333333;fill-opacity:1;stroke:none;stroke-opacity:1"
           id="rect4201-1-4-5"
           width="80"
           height="20"
           x="332.04724"
           y="411.36221"
           rx="3"
           ry="3" />
        <rect
           style="fill:#333333;fill-opacity:1;stroke:none;stroke-opacity:1"
           id="rect4201-1-6-4-1"
           width="80"
           height="20"
           x="242.04483"
           y="411.36221"
           rx="3"
           ry="3" />
        <rect
           style="fill:#333333;fill-opacity:1;stroke:none;stroke-opacity:1"
           id="rect4201-1-6-7-4-2"
           width="80"
           height="20"
           x="422.04965"
           y="411.36221"
           rx="3"
           ry="3" />
      </g>
    </g>
    <g
       id="g4835"
       transform="matrix(1.5925144,0,0,1.5925144,-237.94335,-152.1518)">
      <rect
         ry="3"
         rx="3"
         y="392.36221"
         x="332.04724"
         height="20"
         width="80"
         id="rect4201-1-4-5-8"
         style="fill:#333333;fill-opacity:1;stroke:none;stroke-opacity:1" />
      <rect
         ry="3"
         rx="3"
         y="392.36221"
         x="242.04485"
         height="20"
         width="80"
         id="rect4201-1-6-4-1-7"
         style="fill:#ffe680;fill-opacity:1;stroke:none;stroke-opacity:1" />
      <rect
         ry="3"
         rx="3"
         y="392.36221"
         x="422.04965"
         height="20"
         width="80"
         id="rect4201-1-6-7-4-2-6"
         style="fill:#333333;fill-opacity:1;stroke:none;stroke-opacity:1" />
    </g>
    <g
       id="g4840"
       transform="matrix(1.5925144,0,0,1.5925144,-237.94335,-152.15179)">
      <g
         style="fill:#ffe680"
         transform="translate(0.38867476,15.845115)"
         id="g4546">
        <rect
           style="fill:#ffe680;fill-opacity:1;stroke:none;stroke-opacity:1"
           id="rect4201-1-4-5-8-0-7"
           width="80"
           height="20"
           x="332.04724"
           y="316.51709"
           rx="3"
           ry="3" />
      </g>
    </g>
    <rect
       style="fill:none;fill-opacity:1;stroke:none;stroke-opacity:1"
       id="rect4201-1-6-4-1-7-1"
       width="127.40115"
       height="31.850288"
       x="147.51656"
       y="409.41623"
       rx="4.7775431"
       ry="4.7775431" />
    <g
       id="g4831"
       transform="matrix(1.5925144,0,0,1.5925144,-237.94335,-152.1518)">
      <rect
         ry="3"
         rx="3"
         y="362.36221"
         x="332.04724"
         height="20"
         width="80"
         id="rect4201-1-4-5-8-7"
         style="fill:#333333;fill-opacity:1;stroke:none;stroke-opacity:1" />
      <rect
         ry="3"
         rx="3"
         y="362.36221"
         x="422.04965"
         height="20"
         width="80"
         id="rect4201-1-6-7-4-2-6-1"
         style="fill:#ffe680;fill-opacity:1;stroke:none;stroke-opacity:1" />
    </g>
    <path
       style="fill:#263238;fill-opacity:1;stroke:none;stroke-width:1.82862175;stroke-miterlimit:4;stroke-dasharray:none;stroke-opacity:1"
       id="path4942"
       sodipodi:type="arc"
       sodipodi:cx="354.54724"
       sodipodi:cy="667.77368"
       sodipodi:rx="23.886271"
       sodipodi:ry="23.887714"
       sodipodi:start="0"
       sodipodi:end="3.1415927"
       sodipodi:open="true"
       d="m 378.43351,667.77368 a 23.886271,23.887714 0 0 1 -11.94313,20.68737 23.886271,23.887714 0 0 1 -23.88627,0 23.886271,23.887714 0 0 1 -11.94314,-20.68737" />
  </g>
</svg>
